<svg width="852" height="485" viewBox="0 0 852 485" fill="none" xmlns="http://www.w3.org/2000/svg">
<path d="M753.696 2.94702H105.228C93.5823 2.94702 84.1401 12.3144 84.1401 23.7869V458.898H87.1826V20.8398C87.1826 19.8925 87.2875 19.0505 87.3925 18.1033C87.3925 17.7875 87.4974 17.4718 87.6023 17.2613C87.7072 16.9455 87.7072 16.735 87.8121 16.4192C87.917 16.1035 87.917 15.893 88.0219 15.5772C88.7563 13.1564 90.0153 11.0514 91.589 9.26213C91.7988 9.05162 92.0086 8.84112 92.2185 8.63061C92.3234 8.42011 92.4283 8.31486 92.5332 8.20961C93.3725 7.36759 94.4216 6.52558 95.4708 5.78882C95.7855 5.57831 96.2052 5.36781 96.6248 5.15731C97.0445 4.9468 97.3592 4.7363 97.7789 4.63105C98.0936 4.5258 98.3034 4.31529 98.6182 4.21004C100.612 3.36803 102.92 2.94702 105.228 2.94702H753.696C756.739 2.94702 759.676 3.78904 762.194 5.15731C762.614 5.36781 762.928 5.57831 763.348 5.78882C763.873 6.10457 764.292 6.42033 764.712 6.73608C764.922 6.94659 765.132 7.05184 765.341 7.26234C765.656 7.5781 765.971 7.7886 766.286 8.10436C766.391 8.20961 766.495 8.31486 766.6 8.42011C766.81 8.63061 767.02 8.84112 767.23 9.05162C769.958 12.2092 771.636 16.2087 771.636 20.7346V458.898H774.679V22.5238C774.049 11.5777 764.922 2.94702 753.696 2.94702Z" fill="url(#paint0_linear)"/>
<path d="M84.1401 20.8398C84.1401 9.3674 93.5823 0 105.228 0H753.696C765.342 0 774.784 9.3674 774.784 20.8398V22.5239C774.154 11.6829 764.922 3.0523 753.801 3.0523H105.228C93.5823 3.0523 84.1401 12.4197 84.1401 23.8921V20.8398Z" fill="url(#paint1_linear)"/>
<path d="M771.636 446.794H87.1826V459.003H771.636V446.794Z" fill="black"/>
<path d="M771.636 20.9452V446.794H87.1826V20.9452C87.1826 11.0515 95.2609 3.05237 105.123 3.05237H753.591C763.558 3.05237 771.636 11.0515 771.636 20.9452Z" fill="black"/>
<path d="M774.679 458.898V460.055H771.636H87.1827H84.2451V458.898H774.679Z" fill="black"/>
<path d="M425.948 460.687H0V473.633H425.948V460.687Z" fill="url(#paint2_linear)"/>
<path d="M852 460.055H0V460.687H852V460.055Z" fill="url(#paint3_linear)"/>
<path d="M851.895 460.687H425.947V473.633H851.895V460.687Z" fill="url(#paint4_linear)"/>
<path d="M425.948 460.687H0V472.896H425.948V460.687Z" fill="url(#paint5_linear)"/>
<path d="M851.895 460.687H425.947V472.896H851.895V460.687Z" fill="url(#paint6_linear)"/>
<path d="M486.588 460.055C486.588 462.792 485.539 465.318 483.65 467.107C481.867 468.896 479.454 470.054 476.621 470.054H375.065C369.609 470.054 365.203 465.634 365.203 460.161H486.588V460.055Z" fill="url(#paint7_linear)"/>
<mask id="mask0" mask-type="alpha" maskUnits="userSpaceOnUse" x="364" y="460" width="123" height="11">
<path d="M486.588 460.055C486.588 462.792 485.539 465.318 483.65 467.107C481.867 468.896 479.454 470.054 476.621 470.054H375.065C369.61 470.054 365.203 465.634 365.203 460.161H364.679V460.897C364.679 466.37 369.085 470.791 374.541 470.791H477.041C482.496 470.791 486.903 466.37 486.903 460.897V460.161H486.588V460.055Z" fill="url(#paint8_linear)"/>
</mask>
<g mask="url(#mask0)">
<path d="M486.588 460.055C486.588 462.792 485.539 465.318 483.65 467.107C481.867 468.896 479.454 470.054 476.621 470.054H375.065C369.61 470.054 365.203 465.634 365.203 460.161H364.679V460.897C364.679 466.37 369.085 470.791 374.541 470.791H477.041C482.496 470.791 486.903 466.37 486.903 460.897V460.161H486.588V460.055Z" fill="url(#paint9_linear)"/>
</g>
<path d="M0 473.633C30.0052 481.211 61.1644 485 92.5334 485H425.948H759.362C790.731 485 821.89 481.106 851.895 473.633H425.948H0Z" fill="url(#paint10_linear)"/>
<path d="M757.473 28.9442H101.346V436.163H757.473V28.9442Z" fill="url(#paint11_linear)"/>
<defs>
<linearGradient id="paint0_linear" x1="429.449" y1="458.942" x2="429.449" y2="2.97735" gradientUnits="userSpaceOnUse">
<stop stop-color="#9A9A9A"/>
<stop offset="0.0936434" stop-color="#A2A2A2"/>
<stop offset="0.2383" stop-color="#B8B8B8"/>
<stop offset="0.415" stop-color="#DBDBDB"/>
<stop offset="0.447" stop-color="#E2E2E2"/>
<stop offset="1" stop-color="#C5C5C5"/>
</linearGradient>
<linearGradient id="paint1_linear" x1="429.428" y1="23.7976" x2="429.428" y2="0" gradientUnits="userSpaceOnUse">
<stop stop-color="#404040"/>
<stop offset="0.2805" stop-color="#434343"/>
<stop offset="0.4483" stop-color="#4B4B4B"/>
<stop offset="0.5865" stop-color="#595959"/>
<stop offset="0.7086" stop-color="#6D6D6D"/>
<stop offset="0.8201" stop-color="#888888"/>
<stop offset="0.9223" stop-color="#A7A7A7"/>
<stop offset="1" stop-color="#C5C5C5"/>
</linearGradient>
<linearGradient id="paint2_linear" x1="0" y1="467.168" x2="425.975" y2="467.168" gradientUnits="userSpaceOnUse">
<stop stop-color="#929292"/>
<stop offset="0.0139027" stop-color="#C1C1C1"/>
<stop offset="0.0271092" stop-color="#B2B2B2"/>
<stop offset="0.0486594" stop-color="#9C9C9C"/>
<stop offset="0.0714891" stop-color="#A4A4A4"/>
<stop offset="0.0909114" stop-color="#AFAFAF"/>
<stop offset="1" stop-color="#CFCFCF"/>
</linearGradient>
<linearGradient id="paint3_linear" x1="0" y1="460.378" x2="851.949" y2="460.378" gradientUnits="userSpaceOnUse">
<stop offset="0.00545697" stop-color="#F8F8F8"/>
<stop offset="0.0638544" stop-color="#D0D0D0"/>
<stop offset="0.5025" stop-color="#F8F8F8"/>
<stop offset="0.8664" stop-color="#D0D0D0"/>
<stop offset="0.8755" stop-color="#D3D3D3"/>
<stop offset="0.9512" stop-color="#E9E9E9"/>
<stop offset="1" stop-color="#F1F1F1"/>
</linearGradient>
<linearGradient id="paint4_linear" x1="425.974" y1="467.168" x2="851.949" y2="467.168" gradientUnits="userSpaceOnUse">
<stop stop-color="#CFCFCF"/>
<stop offset="0.9091" stop-color="#AFAFAF"/>
<stop offset="0.9285" stop-color="#A4A4A4"/>
<stop offset="0.9513" stop-color="#9C9C9C"/>
<stop offset="0.9729" stop-color="#B2B2B2"/>
<stop offset="0.9861" stop-color="#C1C1C1"/>
<stop offset="1" stop-color="#929292"/>
</linearGradient>
<linearGradient id="paint5_linear" x1="0" y1="466.786" x2="425.975" y2="466.786" gradientUnits="userSpaceOnUse">
<stop stop-color="#666666"/>
<stop offset="0.0139027" stop-color="#D5D5D5"/>
<stop offset="0.0212916" stop-color="#BDBDBD"/>
<stop offset="0.0397326" stop-color="#868686"/>
<stop offset="0.0486594" stop-color="#707070"/>
<stop offset="0.0571972" stop-color="#787878"/>
<stop offset="0.0704656" stop-color="#8E8E8E"/>
<stop offset="0.0867233" stop-color="#B2B2B2"/>
<stop offset="0.0909114" stop-color="#BCBCBC"/>
<stop offset="1" stop-color="#F1F1F1"/>
</linearGradient>
<linearGradient id="paint6_linear" x1="425.974" y1="466.786" x2="851.949" y2="466.786" gradientUnits="userSpaceOnUse">
<stop stop-color="#F1F1F1"/>
<stop offset="0.9091" stop-color="#BCBCBC"/>
<stop offset="0.9133" stop-color="#B2B2B2"/>
<stop offset="0.9295" stop-color="#8E8E8E"/>
<stop offset="0.9428" stop-color="#787878"/>
<stop offset="0.9513" stop-color="#707070"/>
<stop offset="0.9603" stop-color="#868686"/>
<stop offset="0.9787" stop-color="#BDBDBD"/>
<stop offset="0.9861" stop-color="#D5D5D5"/>
<stop offset="1" stop-color="#666666"/>
</linearGradient>
<linearGradient id="paint7_linear" x1="365.344" y1="465.011" x2="486.605" y2="465.011" gradientUnits="userSpaceOnUse">
<stop stop-color="#9F9F9F"/>
<stop offset="0.0395349" stop-color="#ACACAC"/>
<stop offset="0.514" stop-color="#E5E5E5"/>
<stop offset="0.9628" stop-color="#ACACAC"/>
<stop offset="1" stop-color="#9F9F9F"/>
</linearGradient>
<linearGradient id="paint8_linear" x1="364.866" y1="465.376" x2="487.083" y2="465.376" gradientUnits="userSpaceOnUse">
<stop offset="0.00041222" stop-color="#CCCCCC"/>
<stop offset="0.5247" stop-color="#B3B3B3"/>
<stop offset="0.7671" stop-color="#B5B5B5"/>
<stop offset="0.891" stop-color="#BDBDBD"/>
<stop offset="0.988" stop-color="#CACACA"/>
<stop offset="1" stop-color="#CCCCCC"/>
</linearGradient>
<linearGradient id="paint9_linear" x1="364.866" y1="465.376" x2="487.083" y2="465.376" gradientUnits="userSpaceOnUse">
<stop offset="0.00041222" stop-color="#F7F7F7"/>
<stop offset="0.5247" stop-color="#F8F8F8"/>
<stop offset="1" stop-color="#F7F7F7"/>
</linearGradient>
<linearGradient id="paint10_linear" x1="425.974" y1="485.035" x2="425.974" y2="473.636" gradientUnits="userSpaceOnUse">
<stop stop-color="#575757"/>
<stop offset="0.7389" stop-color="#B9B9B9"/>
<stop offset="0.8472" stop-color="#B6B6B6"/>
<stop offset="0.9363" stop-color="#ACACAC"/>
<stop offset="1" stop-color="#9F9F9F"/>
</linearGradient>
<linearGradient id="paint11_linear" x1="163.91" y1="-33.7805" x2="696.655" y2="497.251" gradientUnits="userSpaceOnUse">
<stop stop-color="#F2F3F4"/>
<stop offset="0.3559" stop-color="#EDEEEF"/>
<stop offset="0.7827" stop-color="#DFE0E0"/>
<stop offset="1" stop-color="#D5D6D6"/>
</linearGradient>
</defs>
</svg>